:SAMPLES-PER-SECOND 30
:FULLY-SPECIFIED
:DEGREES
949
root  -76.9128 41.1462 -2.26492 -56.6583 -83.1149 58.6219
RightUpLeg  -10.542 -11.3483 -7.52957
RightLeg  9.82534 1.75937 1.72707
RightFoot  1.67219 0.2571 -2.15283
RightToes  3.49245e-010 0 -3.6325e-017
Spine  8.61323 -0.89031 4.18588
Spine1  -0.407263 0.440872 -6.45527
HEad  -14.7915 -23.8842 2.434
LeftShoulder1  0.221923 2.38399 -12.803
LeftArm  -35.9998 19.9667 -21.1571
LeftForeArm  26.0734 -33.4033 -5.91792
LeftHand  -0.0166913 5.64789 4.32199
RightShoulder  -0.373416 -5.20396 14.8333
RightArm  -5.78048 -13.6961 8.86266
RightForeArm  -6.32607 12.4237 -0.862212
RightHand  -0.206569 7.75309 -2.12584
LeftUpLeg  -6.84283 3.13317 -0.536836
LeftLeg  1.12657 -4.12547 -0.118619
LeftFoot  5.61267 0.922281 -6.4163
LeftToes  -5.6298e-010 8.41567e-011 -1.83319e-011
950
root  -76.5754 41.1223 -2.25799 -54.6179 -82.798 56.2234
RightUpLeg  -10.5407 -11.6098 -7.77702
RightLeg  9.63971 1.59341 1.85143
RightFoot  2.0825 0.271062 -2.18178
RightToes  3.49245e-010 0 -3.6325e-017
Spine  8.96376 -1.02418 4.6855
Spine1  -0.136115 0.457643 -6.92736
HEad  -14.387 -22.9604 2.86958
LeftShoulder1  0.139709 2.78585 -12.4889
LeftArm  -35.7901 20.9012 -23.3777
LeftForeArm  28.597 -37.8261 -6.92846
LeftHand  -0.0318837 5.12585 3.98449
RightShoulder  -0.435659 -5.44409 15.3163
RightArm  -4.83992 -12.9495 9.38497
RightForeArm  -6.11404 11.9253 -0.706722
RightHand  -0.402346 9.40691 -3.51125
LeftUpLeg  -6.19342 3.66067 -0.298658
LeftLeg  2.20897 -0.511713 -0.321782
LeftFoot  2.62396 0.730565 -6.03627
LeftToes  -5.6298e-010 8.41567e-011 -1.83319e-011
951
root  -76.21 41.0931 -2.23257 -52.7245 -82.4895 54.1675
RightUpLeg  -10.8137 -11.8637 -8.02963
RightLeg  9.48854 1.51821 2.00312
RightFoot  2.41292 0.243139 -1.87997
RightToes  3.49245e-010 0 -3.6325e-017
Spine  9.03648 -0.93105 4.56928
Spine1  -0.285007 0.43753 -6.28402
HEad  -13.5603 -22.3025 2.65934
LeftShoulder1  0.135229 2.86598 -14.0959
LeftArm  -35.0794 20.0126 -23.9223
LeftForeArm  35.0793 -39.9071 -7.13145
LeftHand  -0.0558032 4.16693 3.30232
RightShoulder  -0.442141 -5.51626 14.7693
RightArm  -5.53972 -13.0509 10.6851
RightForeArm  -1.81816 12.3596 -0.827744
RightHand  -0.120786 7.63601 -1.48404
LeftUpLeg  -5.53204 4.0944 -0.08931
LeftLeg  4.37862 2.43385 -0.025468
LeftFoot  -1.0154 0.380531 -4.15145
LeftToes  -5.6298e-010 8.41567e-011 -1.83319e-011
952
root  -75.8175 41.0591 -2.17395 -52.349 -82.3582 53.6136
RightUpLeg  -11.205 -11.9344 -8.17202
RightLeg  9.39559 1.58546 2.00374
RightFoot  3.00811 0.257035 -1.86945
RightToes  3.49245e-010 0 -3.6325e-017
Spine  9.12944 -0.905334 4.51101
Spine1  -0.908739 0.409874 -6.07681
HEad  -12.6704 -21.4746 2.58859
LeftShoulder1  0.225975 2.46253 -14.8342
LeftArm  -33.2287 19.8994 -24.5203
LeftForeArm  40.3439 -40.1201 -6.87522
LeftHand  -0.0831588 3.36134 3.91308
RightShoulder  -0.361227 -5.16582 14.4969
RightArm  -5.43254 -13.9716 12.1455
RightForeArm  0.126083 13.0145 -0.582853
RightHand  -0.0529201 7.55274 -0.720087
LeftUpLeg  -4.5899 4.68197 0.125706
LeftLeg  7.08795 4.12907 0.455257
LeftFoot  -3.48808 0.217298 -2.90422
LeftToes  -5.6298e-010 8.41567e-011 -1.83319e-011
953
root  -75.3979 40.9904 -2.0675 -51.1307 -82.4402 52.0148
RightUpLeg  -11.6303 -11.8492 -8.08494
RightLeg  9.68455 1.51388 1.88578
RightFoot  3.77978 0.326475 -2.26757
RightToes  3.49245e-010 0 -3.6325e-017
Spine  9.39188 -1.01399 4.17567
Spine1  -1.37378 0.125798 -5.12664
HEad  -12.3809 -20.3981 2.62813
LeftShoulder1  0.199157 2.61201 -15.465
LeftArm  -30.9047 19.5384 -24.8877
LeftForeArm  41.111 -38.4397 -6.37714
LeftHand  -0.0839764 3.2214 3.69855
RightShoulder  -0.351988 -5.11802 14.5412
RightArm  -5.47954 -14.3056 13.6368
RightForeArm  4.08493 13.2524 -0.572965
RightHand  0.199443 5.20598 1.82607
LeftUpLeg  -3.25866 5.23119 0.65386
LeftLeg  10.2347 3.38309 0.793444
LeftFoot  -5.51333 0.166485 -2.59458
LeftToes  -5.6298e-010 8.41567e-011 -1.83319e-011
954
root  -74.9282 40.8999 -1.91804 -50.067 -82.5183 50.7995
RightUpLeg  -12.3296 -11.9374 -8.13166
RightLeg  9.853 1.55001 1.92018
RightFoot  4.0684 0.226385 -1.46568
RightToes  3.49245e-010 0 -3.6325e-017
Spine  9.00166 -0.881081 3.90074
Spine1  -1.28103 0.0668124 -3.95791
HEad  -12.6974 -19.9928 2.42601
LeftShoulder1  0.215067 2.60197 -17.1387
LeftArm  -29.7674 17.1151 -24.6195
LeftForeArm  38.9633 -33.4862 -5.20849
LeftHand  -0.0593933 3.77019 2.95189
RightShoulder  -0.319288 -5.03501 13.5275
RightArm  -6.58627 -16.1086 15.8176
RightForeArm  5.48919 13.9463 -0.568012
RightHand  0.0921691 6.22543 0.575592
LeftUpLeg  -2.17528 4.64232 1.06655
LeftLeg  13.4707 2.2912 0.985187
LeftFoot  -7.28816 0.110056 -1.89112
LeftToes  -5.6298e-010 8.41567e-011 -1.83319e-011
